<svg width="30" height="50" viewBox="0 0 60 80" fill="none" xmlns="http://www.w3.org/2000/svg">
<g filter="url(#filter0_d_33_495)">
<rect x="4" y="1" width="52" height="72" rx="26" fill="#E3FBC0" stroke="#FFFBFB" stroke-width="2"/>
<path d="M31.5757 45.895L30.4917 46.979C30.0327 47.438 29.2905 47.438 28.8364 46.979L19.3442 37.4917C18.8853 37.0327 18.8853 36.2905 19.3442 35.8364L28.8364 26.3442C29.2954 25.8853 30.0376 25.8853 30.4917 26.3442L31.5757 27.4282C32.0395 27.8921 32.0298 28.6489 31.5562 29.103L25.6724 34.7085H39.7056C40.355 34.7085 40.8774 35.231 40.8774 35.8804V37.4429C40.8774 38.0923 40.355 38.6147 39.7056 38.6147H25.6724L31.5562 44.2202C32.0347 44.6743 32.0444 45.4312 31.5757 45.895Z" fill="black" fill-opacity="0.8"/>
</g>
<defs>
<filter id="filter0_d_33_495" x="0" y="0" width="60" height="80" filterUnits="userSpaceOnUse" color-interpolation-filters="sRGB">
<feFlood flood-opacity="0" result="BackgroundImageFix"/>
<feColorMatrix in="SourceAlpha" type="matrix" values="0 0 0 0 0 0 0 0 0 0 0 0 0 0 0 0 0 0 127 0" result="hardAlpha"/>
<feOffset dy="3"/>
<feGaussianBlur stdDeviation="1.5"/>
<feComposite in2="hardAlpha" operator="out"/>
<feColorMatrix type="matrix" values="0 0 0 0 0 0 0 0 0 0 0 0 0 0 0 0 0 0 0.25 0"/>
<feBlend mode="normal" in2="BackgroundImageFix" result="effect1_dropShadow_33_495"/>
<feBlend mode="normal" in="SourceGraphic" in2="effect1_dropShadow_33_495" result="shape"/>
</filter>
</defs>
</svg>
