<svg width="103" height="18" viewBox="0 0 103 18" fill="none" xmlns="http://www.w3.org/2000/svg">
<path d="M7.80151 0.62615L5.66819 5.28026L0.895162 6.029C0.039219 6.16257 -0.303812 7.29798 0.316911 7.94829L3.77009 11.5689L2.95335 16.6835C2.80633 17.608 3.71128 18.3005 4.46922 17.8682L8.73913 15.4532L13.009 17.8682C13.767 18.297 14.6719 17.608 14.5249 16.6835L13.7082 11.5689L17.1614 7.94829C17.7821 7.29798 17.439 6.16257 16.5831 6.029L11.8101 5.28026L9.67675 0.62615C9.29451 -0.203435 8.18701 -0.213981 7.80151 0.62615Z" fill="#FEDF67"/>
<path d="M29.1638 0.62615L27.0305 5.28026L22.2575 6.029C21.4015 6.16257 21.0585 7.29798 21.6792 7.94829L25.1324 11.5689L24.3157 16.6835C24.1686 17.608 25.0736 18.3005 25.8315 17.8682L30.1014 15.4532L34.3714 17.8682C35.1293 18.297 36.0342 17.608 35.8872 16.6835L35.0705 11.5689L38.5237 7.94829C39.1444 7.29798 38.8013 6.16257 37.9454 6.029L33.1724 5.28026L31.0391 0.62615C30.6568 -0.203435 29.5493 -0.213981 29.1638 0.62615Z" fill="#FEDF67"/>
<path d="M50.5261 0.62615L48.3928 5.28026L43.6198 6.029C42.7638 6.16257 42.4208 7.29798 43.0415 7.94829L46.4947 11.5689L45.678 16.6835C45.5309 17.608 46.4359 18.3005 47.1938 17.8682L51.4637 15.4532L55.7337 17.8682C56.4916 18.297 57.3965 17.608 57.2495 16.6835L56.4328 11.5689L59.886 7.94829C60.5067 7.29798 60.1637 6.16257 59.3077 6.029L54.5347 5.28026L52.4014 0.62615C52.0191 -0.203435 50.9116 -0.213981 50.5261 0.62615Z" fill="#FEDF67"/>
<path d="M71.8885 0.62615L69.7552 5.28026L64.9821 6.029C64.1262 6.16257 63.7832 7.29798 64.4039 7.94829L67.8571 11.5689L67.0403 16.6835C66.8933 17.608 67.7983 18.3005 68.5562 17.8682L72.8261 15.4532L77.096 17.8682C77.854 18.297 78.7589 17.608 78.6119 16.6835L77.7952 11.5689L81.2483 7.94829C81.869 7.29798 81.526 6.16257 80.6701 6.029L75.897 5.28026L73.7637 0.62615C73.3815 -0.203435 72.274 -0.213981 71.8885 0.62615Z" fill="#FEDF67"/>
<path d="M93.2508 0.62615L91.1175 5.28026L86.3444 6.029C85.4885 6.16257 85.1455 7.29798 85.7662 7.94829L89.2194 11.5689L88.4026 16.6835C88.2556 17.608 89.1606 18.3005 89.9185 17.8682L94.1884 15.4532L98.4583 17.8682C99.2163 18.297 100.121 17.608 99.9742 16.6835L99.1575 11.5689L102.611 7.94829C103.231 7.29798 102.888 6.16257 102.032 6.029L97.2594 5.28026L95.126 0.62615C94.7438 -0.203435 93.6363 -0.213981 93.2508 0.62615Z" fill="#FEDF67"/>
</svg>
