<svg width="339" height="46" viewBox="0 0 339 46" fill="none" xmlns="http://www.w3.org/2000/svg">
<g filter="url(#filter0_d_31_430)">
<path d="M21.1695 8.04384L13.1673 14.6345V21.7478C13.1673 21.932 13.2405 22.1086 13.3707 22.2389C13.5009 22.3691 13.6776 22.4423 13.8618 22.4423L18.7255 22.4297C18.9091 22.4288 19.0848 22.3552 19.2143 22.2251C19.3438 22.0949 19.4165 21.9188 19.4164 21.7352V17.5812C19.4164 17.397 19.4896 17.2204 19.6198 17.0901C19.7501 16.9599 19.9267 16.8867 20.1109 16.8867H22.8887C23.0728 16.8867 23.2495 16.9599 23.3797 17.0901C23.51 17.2204 23.5831 17.397 23.5831 17.5812V21.7322C23.5828 21.8236 23.6006 21.9141 23.6354 21.9986C23.6701 22.0831 23.7212 22.1599 23.7857 22.2247C23.8503 22.2894 23.9269 22.3407 24.0113 22.3758C24.0957 22.4108 24.1862 22.4288 24.2776 22.4288L29.1395 22.4423C29.3237 22.4423 29.5004 22.3691 29.6306 22.2389C29.7608 22.1086 29.834 21.932 29.834 21.7478V14.6298L21.8335 8.04384C21.7395 7.96802 21.6223 7.92668 21.5015 7.92668C21.3807 7.92668 21.2635 7.96802 21.1695 8.04384ZM33.8097 12.5234L30.1812 9.53255V3.52083C30.1812 3.3827 30.1263 3.25022 30.0287 3.15255C29.931 3.05487 29.7985 3 29.6604 3H27.2298C27.0917 3 26.9592 3.05487 26.8615 3.15255C26.7639 3.25022 26.709 3.3827 26.709 3.52083V6.67231L22.8231 3.47526C22.4502 3.16839 21.9823 3.00061 21.4993 3.00061C21.0164 3.00061 20.5485 3.16839 20.1756 3.47526L9.18902 12.5234C9.13628 12.567 9.09264 12.6206 9.06061 12.681C9.02858 12.7415 9.00877 12.8077 9.00232 12.8758C8.99587 12.9439 9.00291 13.0126 9.02302 13.078C9.04314 13.1434 9.07595 13.2042 9.11957 13.2569L10.2263 14.6024C10.2698 14.6553 10.3234 14.6991 10.3838 14.7313C10.4443 14.7635 10.5105 14.7835 10.5786 14.79C10.6468 14.7966 10.7156 14.7897 10.7811 14.7696C10.8466 14.7496 10.9075 14.7168 10.9603 14.6732L21.1695 6.26432C21.2635 6.18851 21.3807 6.14717 21.5015 6.14717C21.6223 6.14717 21.7395 6.18851 21.8335 6.26432L32.0432 14.6732C32.0959 14.7168 32.1567 14.7496 32.2221 14.7697C32.2875 14.7898 32.3562 14.7969 32.4243 14.7904C32.4924 14.784 32.5586 14.7642 32.6191 14.7321C32.6795 14.7001 32.7331 14.6565 32.7767 14.6037L33.8835 13.2582C33.927 13.2052 33.9597 13.1441 33.9796 13.0784C33.9995 13.0128 34.0062 12.9438 33.9993 12.8755C33.9925 12.8072 33.9722 12.741 33.9396 12.6805C33.9071 12.6201 33.8629 12.5667 33.8097 12.5234Z" fill="white"/>
<path d="M24.0831 21.7322V21.7338C24.083 21.7594 24.088 21.7847 24.0977 21.8084L23.6354 21.9986L24.0977 21.8084C24.1075 21.832 24.1218 21.8535 24.1399 21.8717C24.1579 21.8898 24.1794 21.9042 24.203 21.914C24.2266 21.9238 24.252 21.9288 24.2776 21.9288H24.2789L24.0831 21.7322ZM24.0831 21.7322V17.5812C24.0831 17.2644 23.9573 16.9606 23.7333 16.7366C23.5093 16.5126 23.2055 16.3867 22.8887 16.3867H20.1109C19.7941 16.3867 19.4903 16.5126 19.2663 16.7366C19.0423 16.9606 18.9164 17.2644 18.9164 17.5812V21.7352C18.9164 21.7867 18.8961 21.836 18.8598 21.8724C18.8236 21.9088 18.7745 21.9294 18.7232 21.9297C18.7231 21.9297 18.723 21.9297 18.723 21.9297L13.8618 21.9423C13.8616 21.9423 13.8615 21.9423 13.8614 21.9423C13.8099 21.9422 13.7606 21.9217 13.7243 21.8853L13.3707 22.2389L13.7243 21.8853C13.6878 21.8489 13.6673 21.7994 13.6673 21.7478V14.8705L21.4841 8.43251C21.4891 8.42873 21.4952 8.42668 21.5015 8.42668C21.5078 8.42668 21.514 8.42873 21.519 8.43251C21.5193 8.43271 21.5195 8.43291 21.5198 8.43312L29.334 14.8658V21.7478C29.334 21.7994 29.3135 21.8489 29.277 21.8853C29.2407 21.9217 29.1914 21.9421 29.14 21.9423L24.0831 21.7322ZM33.4916 12.9093L33.4942 12.9114C33.4964 12.9131 33.4981 12.9152 33.4994 12.9177C33.5007 12.9201 33.5015 12.9227 33.5018 12.9255C33.5021 12.9282 33.5018 12.931 33.501 12.9336C33.5002 12.9362 33.4989 12.9386 33.4972 12.9408L32.3913 14.2852C32.3912 14.2853 32.3912 14.2853 32.3911 14.2854C32.3894 14.2874 32.3873 14.2891 32.385 14.2903C32.3826 14.2916 32.3799 14.2924 32.3772 14.2927C32.3745 14.2929 32.3717 14.2926 32.3691 14.2918C32.3665 14.291 32.3641 14.2897 32.362 14.288L32.3611 14.2872L22.1514 5.87837L22.1514 5.87835L22.1473 5.87504C21.9644 5.72758 21.7365 5.64717 21.5015 5.64717C21.2665 5.64717 21.0386 5.72758 20.8557 5.87504L20.8557 5.87502L20.8516 5.87838L10.6424 14.2872L10.6419 14.2877C10.6398 14.2894 10.6373 14.2907 10.6347 14.2915C10.6321 14.2923 10.6293 14.2926 10.6266 14.2923C10.6239 14.2921 10.6212 14.2913 10.6188 14.29C10.6164 14.2887 10.6143 14.287 10.6125 14.2848L10.6125 14.2848L9.50572 12.9393L9.50478 12.9382C9.50304 12.9361 9.50172 12.9336 9.50092 12.931C9.50012 12.9284 9.49983 12.9257 9.50009 12.9229C9.50035 12.9202 9.50114 12.9176 9.50242 12.9151C9.50368 12.9128 9.50539 12.9107 9.50745 12.9089C9.50749 12.9089 9.50752 12.9089 9.50756 12.9088L20.4933 3.86135C20.7767 3.62813 21.1323 3.50061 21.4993 3.50061C21.8664 3.50061 22.222 3.62813 22.5054 3.86135L22.5055 3.86137L26.3913 7.05842L27.209 7.73116V6.67231V3.52083C27.209 3.51531 27.2112 3.51001 27.2151 3.5061C27.219 3.5022 27.2243 3.5 27.2298 3.5H29.6604C29.6659 3.5 29.6712 3.5022 29.6751 3.5061C29.679 3.51001 29.6812 3.51531 29.6812 3.52083V9.53255V9.76838L29.8632 9.91837L33.4916 12.9093Z" stroke="black" stroke-opacity="0.7"/>
<path d="M129.574 4.49576C126.898 2.21549 122.919 2.62564 120.463 5.15982L119.501 6.15104L118.539 5.15982C116.088 2.62564 112.103 2.21549 109.427 4.49576C106.361 7.11295 106.2 11.8102 108.944 14.6471L118.392 24.403C119.003 25.0329 119.994 25.0329 120.604 24.403L130.052 14.6471C132.801 11.8102 132.64 7.11295 129.574 4.49576Z" fill="#FFFEFE"/>
<path d="M120.822 5.5078L120.821 5.50804L119.859 6.49925L119.501 6.86899L119.142 6.49925L118.18 5.50803L118.179 5.50744C115.89 3.14046 112.204 2.78687 109.752 4.8762C106.908 7.30344 106.757 11.6668 109.303 14.2995L118.751 24.055C118.751 24.0551 118.751 24.0551 118.751 24.0551C119.165 24.4822 119.831 24.4822 120.245 24.0551C120.245 24.0551 120.245 24.0551 120.245 24.055L129.693 14.2993L129.693 14.2992C132.244 11.6666 132.093 7.30355 129.25 4.87632L120.822 5.5078ZM120.822 5.5078C123.116 3.14022 126.798 2.78705 129.249 4.87607L120.822 5.5078Z" stroke="black" stroke-opacity="0.7"/>
<path d="M226.906 13.8889H214.183L214.467 15.2778H226.117C226.785 15.2778 227.281 15.8985 227.133 16.5503L226.893 17.6039C227.705 17.9977 228.264 18.8293 228.264 19.7917C228.264 21.1459 227.156 22.2415 225.798 22.222C224.503 22.2033 223.439 21.1529 223.404 19.8588C223.385 19.1519 223.668 18.5112 224.133 18.0555H215.034C215.484 18.4967 215.764 19.1114 215.764 19.7917C215.764 21.1724 214.612 22.2843 213.217 22.2195C211.979 22.162 210.971 21.1612 210.906 19.9228C210.856 18.9664 211.359 18.1235 212.124 17.6838L209.075 2.77778H206.042C205.466 2.77778 205 2.31141 205 1.73611V1.04167C205 0.466363 205.466 0 206.042 0H210.492C210.987 0 211.413 0.348134 211.512 0.832899L211.91 2.77778H228.958C229.626 2.77778 230.122 3.39848 229.974 4.0503L227.922 13.0781C227.814 13.5523 227.392 13.8889 226.906 13.8889ZM222.493 8.33333H220.625V5.72917C220.625 5.44154 220.392 5.20833 220.104 5.20833H219.062C218.775 5.20833 218.542 5.44154 218.542 5.72917V8.33333H216.674C216.21 8.33333 215.978 8.89436 216.306 9.22244L219.215 12.1317C219.418 12.3351 219.748 12.3351 219.952 12.1317L222.861 9.22244C223.189 8.89436 222.957 8.33333 222.493 8.33333Z" fill="#FF6262"/>
<path d="M214.183 13.3889H213.57L213.693 13.9891L213.977 15.378L214.059 15.7778H214.467H226.117C226.465 15.7778 226.722 16.1005 226.645 16.4395L226.406 17.4931L226.318 17.8804L226.675 18.0538C227.321 18.3671 227.764 19.0281 227.764 19.7917C227.764 20.8674 226.884 21.7375 225.805 21.722C224.778 21.7072 223.931 20.8712 223.904 19.8453L223.404 19.8588L223.904 19.8453C223.888 19.2835 224.113 18.7754 224.483 18.4127L225.358 17.5555H224.133H215.034H213.809L214.684 18.4127C215.042 18.7639 215.264 19.2515 215.264 19.7917C215.264 20.8885 214.349 21.7716 213.241 21.7201C212.259 21.6745 211.457 20.8781 211.406 19.8965C211.366 19.1368 211.764 18.4674 212.373 18.1172L212.686 17.9373L212.614 17.5836L209.565 2.67758L209.483 2.27778H209.075H206.042C205.743 2.27778 205.5 2.03527 205.5 1.73611V1.04167C205.5 0.742505 205.743 0.5 206.042 0.5H210.492C210.749 0.5 210.971 0.681024 211.022 0.933115L211.42 2.87798L211.502 3.27778H211.91H228.958C229.305 3.27778 229.563 3.60054 229.486 3.9395L227.434 12.9673L227.434 12.9673C227.378 13.2139 227.159 13.3889 226.906 13.3889H214.183ZM220.305 12.4853L220.305 12.4852L223.214 9.57599C223.858 8.9329 223.402 7.83333 222.493 7.83333H221.125V5.72917C221.125 5.16539 220.668 4.70833 220.104 4.70833H219.062C218.499 4.70833 218.042 5.16539 218.042 5.72917V7.83333H216.674C215.765 7.83333 215.309 8.9329 215.952 9.57599C215.952 9.576 215.952 9.57601 215.952 9.57602L218.862 12.4852C219.26 12.8839 219.907 12.8839 220.305 12.4853Z" stroke="black" stroke-opacity="0.7"/>
<path d="M315.109 0C308.42 0 303 5.41992 303 12.1094C303 18.7988 308.42 24.2188 315.109 24.2188C321.799 24.2188 327.219 18.7988 327.219 12.1094C327.219 5.41992 321.799 0 315.109 0ZM315.109 4.6875C317.482 4.6875 319.406 6.61133 319.406 8.98438C319.406 11.3574 317.482 13.2812 315.109 13.2812C312.736 13.2812 310.812 11.3574 310.812 8.98438C310.812 6.61133 312.736 4.6875 315.109 4.6875ZM315.109 21.4844C312.243 21.4844 309.675 20.1855 307.956 18.1543C308.874 16.4258 310.671 15.2344 312.766 15.2344C312.883 15.2344 313 15.2539 313.112 15.2881C313.747 15.4932 314.411 15.625 315.109 15.625C315.808 15.625 316.477 15.4932 317.106 15.2881C317.219 15.2539 317.336 15.2344 317.453 15.2344C319.548 15.2344 321.345 16.4258 322.263 18.1543C320.544 20.1855 317.976 21.4844 315.109 21.4844Z" fill="white"/>
<path d="M307.514 17.9198L307.356 18.2188L307.574 18.4773C309.383 20.6151 312.089 21.9844 315.109 21.9844C318.13 21.9844 320.835 20.6151 322.644 18.4773L322.863 18.2188L322.704 17.9198C321.705 16.0386 319.745 14.7344 317.453 14.7344C317.281 14.7344 317.114 14.763 316.961 14.8097L316.961 14.8097L316.952 14.8127C316.36 15.0051 315.744 15.125 315.109 15.125C314.475 15.125 313.863 15.0053 313.266 14.8123L313.266 14.8122L313.258 14.8097C313.104 14.763 312.938 14.7344 312.766 14.7344C310.474 14.7344 308.514 16.0386 307.514 17.9198ZM303.5 12.1094C303.5 5.69606 308.696 0.5 315.109 0.5C321.523 0.5 326.719 5.69606 326.719 12.1094C326.719 18.5227 321.523 23.7188 315.109 23.7188C308.696 23.7188 303.5 18.5227 303.5 12.1094ZM319.906 8.98438C319.906 6.33519 317.759 4.1875 315.109 4.1875C312.46 4.1875 310.312 6.33519 310.312 8.98438C310.312 11.6336 312.46 13.7812 315.109 13.7812C317.759 13.7812 319.906 11.6336 319.906 8.98438Z" stroke="black" stroke-opacity="0.7"/>
<path d="M10.2031 29.9209V31.0708H4.43164V29.9209H10.2031ZM4.65137 25.3359V36H3.23779V25.3359H4.65137ZM11.4336 25.3359V36H10.0273V25.3359H11.4336ZM13.3818 32.1255V31.957C13.3818 31.3857 13.4648 30.856 13.6309 30.3677C13.7969 29.8745 14.0361 29.4473 14.3486 29.0859C14.6611 28.7197 15.0396 28.4365 15.4839 28.2363C15.9282 28.0312 16.4263 27.9287 16.978 27.9287C17.5347 27.9287 18.0352 28.0312 18.4795 28.2363C18.9287 28.4365 19.3096 28.7197 19.6221 29.0859C19.9395 29.4473 20.1812 29.8745 20.3472 30.3677C20.5132 30.856 20.5962 31.3857 20.5962 31.957V32.1255C20.5962 32.6968 20.5132 33.2266 20.3472 33.7148C20.1812 34.2031 19.9395 34.6304 19.6221 34.9966C19.3096 35.3579 18.9312 35.6411 18.4868 35.8462C18.0474 36.0464 17.5493 36.1465 16.9927 36.1465C16.436 36.1465 15.9355 36.0464 15.4912 35.8462C15.0469 35.6411 14.666 35.3579 14.3486 34.9966C14.0361 34.6304 13.7969 34.2031 13.6309 33.7148C13.4648 33.2266 13.3818 32.6968 13.3818 32.1255ZM14.7368 31.957V32.1255C14.7368 32.521 14.7832 32.8945 14.876 33.2461C14.9688 33.5928 15.1079 33.9004 15.2935 34.1689C15.4839 34.4375 15.7207 34.6499 16.0039 34.8062C16.2871 34.9575 16.6167 35.0332 16.9927 35.0332C17.3638 35.0332 17.6885 34.9575 17.9668 34.8062C18.25 34.6499 18.4844 34.4375 18.6699 34.1689C18.8555 33.9004 18.9946 33.5928 19.0874 33.2461C19.1851 32.8945 19.2339 32.521 19.2339 32.1255V31.957C19.2339 31.5664 19.1851 31.1978 19.0874 30.8511C18.9946 30.4995 18.853 30.1895 18.6626 29.9209C18.4771 29.6475 18.2427 29.4326 17.9595 29.2764C17.6812 29.1201 17.354 29.042 16.978 29.042C16.6069 29.042 16.2798 29.1201 15.9966 29.2764C15.7183 29.4326 15.4839 29.6475 15.2935 29.9209C15.1079 30.1895 14.9688 30.4995 14.876 30.8511C14.7832 31.1978 14.7368 31.5664 14.7368 31.957ZM23.6431 29.6499V36H22.2808V28.0752H23.5698L23.6431 29.6499ZM23.3647 31.7373L22.7349 31.7153C22.7397 31.1733 22.8105 30.6729 22.9473 30.2139C23.084 29.75 23.2866 29.3472 23.5552 29.0054C23.8237 28.6636 24.1582 28.3999 24.5586 28.2144C24.959 28.0239 25.4229 27.9287 25.9502 27.9287C26.3213 27.9287 26.6631 27.9824 26.9756 28.0898C27.2881 28.1924 27.5591 28.356 27.7886 28.5806C28.0181 28.8052 28.1963 29.0933 28.3232 29.4448C28.4502 29.7964 28.5137 30.2212 28.5137 30.7192V36H27.1587V30.7852C27.1587 30.3701 27.0879 30.0381 26.9463 29.7891C26.8096 29.54 26.6143 29.3594 26.3604 29.2471C26.1064 29.1299 25.8086 29.0713 25.4668 29.0713C25.0664 29.0713 24.7319 29.1421 24.4634 29.2837C24.1948 29.4253 23.98 29.6206 23.8188 29.8696C23.6577 30.1187 23.5405 30.4043 23.4673 30.7266C23.3989 31.0439 23.3647 31.3809 23.3647 31.7373ZM28.499 30.9902L27.5908 31.2686C27.5957 30.834 27.6665 30.4165 27.8032 30.0161C27.9448 29.6157 28.1475 29.2593 28.4111 28.9468C28.6797 28.6343 29.0093 28.3877 29.3999 28.207C29.7905 28.0215 30.2373 27.9287 30.7402 27.9287C31.165 27.9287 31.541 27.9849 31.8682 28.0972C32.2002 28.2095 32.4785 28.3828 32.7031 28.6172C32.9326 28.8467 33.106 29.1421 33.2231 29.5034C33.3403 29.8647 33.3989 30.2944 33.3989 30.7925V36H32.0366V30.7778C32.0366 30.3335 31.9658 29.9893 31.8242 29.7451C31.6875 29.4961 31.4922 29.3228 31.2383 29.2251C30.9893 29.1226 30.6914 29.0713 30.3447 29.0713C30.0469 29.0713 29.7832 29.1226 29.5537 29.2251C29.3242 29.3276 29.1313 29.4692 28.9751 29.6499C28.8188 29.8257 28.6992 30.0283 28.6162 30.2578C28.5381 30.4873 28.499 30.7314 28.499 30.9902ZM38.7383 36.1465C38.1865 36.1465 37.686 36.0537 37.2368 35.8682C36.7925 35.6777 36.4092 35.4116 36.0869 35.0698C35.7695 34.728 35.5254 34.3228 35.3545 33.854C35.1836 33.3853 35.0981 32.8726 35.0981 32.3159V32.0083C35.0981 31.3638 35.1934 30.79 35.3838 30.2871C35.5742 29.7793 35.833 29.3496 36.1602 28.998C36.4873 28.6465 36.8584 28.3804 37.2734 28.1997C37.6885 28.019 38.1182 27.9287 38.5625 27.9287C39.1289 27.9287 39.6172 28.0264 40.0273 28.2217C40.4424 28.417 40.7817 28.6904 41.0454 29.042C41.3091 29.3887 41.5044 29.7988 41.6313 30.2725C41.7583 30.7412 41.8218 31.2539 41.8218 31.8105V32.4185H35.9038V31.3125H40.4668V31.21C40.4473 30.8584 40.374 30.5166 40.2471 30.1846C40.125 29.8525 39.9297 29.5791 39.6611 29.3643C39.3926 29.1494 39.0264 29.042 38.5625 29.042C38.2549 29.042 37.9717 29.1079 37.7129 29.2397C37.4541 29.3667 37.2319 29.5571 37.0464 29.811C36.8608 30.0649 36.7168 30.375 36.6143 30.7412C36.5117 31.1074 36.4604 31.5298 36.4604 32.0083V32.3159C36.4604 32.6919 36.5117 33.0459 36.6143 33.3779C36.7217 33.7051 36.8755 33.9932 37.0757 34.2422C37.2808 34.4912 37.5273 34.6865 37.8154 34.8281C38.1084 34.9697 38.4404 35.0405 38.8115 35.0405C39.29 35.0405 39.6953 34.9429 40.0273 34.7476C40.3594 34.5522 40.6499 34.291 40.8989 33.9639L41.7192 34.6157C41.5483 34.8745 41.3311 35.1211 41.0674 35.3555C40.8037 35.5898 40.479 35.7803 40.0933 35.9268C39.7124 36.0732 39.2607 36.1465 38.7383 36.1465Z" fill="black" fill-opacity="0.9"/>
<path d="M91.6514 25.3359V36H90.2378V25.3359H91.6514ZM96.1191 30.1333V31.2905H91.3438V30.1333H96.1191ZM96.8442 25.3359V26.4932H91.3438V25.3359H96.8442ZM102.748 34.645V30.5654C102.748 30.2529 102.684 29.9819 102.557 29.7524C102.435 29.5181 102.25 29.3374 102 29.2104C101.751 29.0835 101.444 29.02 101.078 29.02C100.736 29.02 100.436 29.0786 100.177 29.1958C99.9229 29.313 99.7227 29.4668 99.5762 29.6572C99.4346 29.8477 99.3638 30.0527 99.3638 30.2725H98.0088C98.0088 29.9893 98.082 29.7085 98.2285 29.4302C98.375 29.1519 98.585 28.9004 98.8584 28.6758C99.1367 28.4463 99.4688 28.2656 99.8545 28.1338C100.245 27.9971 100.68 27.9287 101.158 27.9287C101.734 27.9287 102.242 28.0264 102.682 28.2217C103.126 28.417 103.473 28.7124 103.722 29.1079C103.976 29.4985 104.103 29.9893 104.103 30.5801V34.2715C104.103 34.5352 104.125 34.8159 104.168 35.1138C104.217 35.4116 104.288 35.668 104.381 35.8828V36H102.967C102.899 35.8438 102.845 35.6362 102.806 35.3774C102.767 35.1138 102.748 34.8696 102.748 34.645ZM102.982 31.1953L102.997 32.1475H101.627C101.241 32.1475 100.897 32.1792 100.594 32.2427C100.292 32.3013 100.038 32.3916 99.8325 32.5137C99.6274 32.6357 99.4712 32.7896 99.3638 32.9751C99.2563 33.1558 99.2026 33.3682 99.2026 33.6123C99.2026 33.8613 99.2588 34.0884 99.3711 34.2935C99.4834 34.4985 99.6519 34.6621 99.8765 34.7842C100.106 34.9014 100.387 34.96 100.719 34.96C101.134 34.96 101.5 34.8721 101.817 34.6963C102.135 34.5205 102.386 34.3057 102.572 34.0518C102.762 33.7979 102.865 33.5513 102.879 33.312L103.458 33.9639C103.424 34.1689 103.331 34.396 103.18 34.645C103.028 34.894 102.826 35.1333 102.572 35.3628C102.323 35.5874 102.025 35.7754 101.678 35.9268C101.336 36.0732 100.951 36.1465 100.521 36.1465C99.9839 36.1465 99.5127 36.0415 99.1074 35.8315C98.707 35.6216 98.3945 35.3408 98.1699 34.9893C97.9502 34.6328 97.8403 34.2349 97.8403 33.7954C97.8403 33.3706 97.9233 32.9971 98.0894 32.6748C98.2554 32.3477 98.4946 32.0767 98.8071 31.8618C99.1196 31.6421 99.4956 31.4761 99.9351 31.3638C100.375 31.2515 100.865 31.1953 101.407 31.1953H102.982ZM108.526 34.7769L110.694 28.0752H112.079L109.229 36H108.321L108.526 34.7769ZM106.717 28.0752L108.951 34.8135L109.105 36H108.197L105.326 28.0752H106.717ZM112.906 32.1255V31.957C112.906 31.3857 112.989 30.856 113.155 30.3677C113.321 29.8745 113.561 29.4473 113.873 29.0859C114.186 28.7197 114.564 28.4365 115.008 28.2363C115.453 28.0312 115.951 27.9287 116.502 27.9287C117.059 27.9287 117.56 28.0312 118.004 28.2363C118.453 28.4365 118.834 28.7197 119.146 29.0859C119.464 29.4473 119.706 29.8745 119.872 30.3677C120.038 30.856 120.121 31.3857 120.121 31.957V32.1255C120.121 32.6968 120.038 33.2266 119.872 33.7148C119.706 34.2031 119.464 34.6304 119.146 34.9966C118.834 35.3579 118.456 35.6411 118.011 35.8462C117.572 36.0464 117.074 36.1465 116.517 36.1465C115.96 36.1465 115.46 36.0464 115.016 35.8462C114.571 35.6411 114.19 35.3579 113.873 34.9966C113.561 34.6304 113.321 34.2031 113.155 33.7148C112.989 33.2266 112.906 32.6968 112.906 32.1255ZM114.261 31.957V32.1255C114.261 32.521 114.308 32.8945 114.4 33.2461C114.493 33.5928 114.632 33.9004 114.818 34.1689C115.008 34.4375 115.245 34.6499 115.528 34.8062C115.812 34.9575 116.141 35.0332 116.517 35.0332C116.888 35.0332 117.213 34.9575 117.491 34.8062C117.774 34.6499 118.009 34.4375 118.194 34.1689C118.38 33.9004 118.519 33.5928 118.612 33.2461C118.709 32.8945 118.758 32.521 118.758 32.1255V31.957C118.758 31.5664 118.709 31.1978 118.612 30.8511C118.519 30.4995 118.377 30.1895 118.187 29.9209C118.001 29.6475 117.767 29.4326 117.484 29.2764C117.206 29.1201 116.878 29.042 116.502 29.042C116.131 29.042 115.804 29.1201 115.521 29.2764C115.243 29.4326 115.008 29.6475 114.818 29.9209C114.632 30.1895 114.493 30.4995 114.4 30.8511C114.308 31.1978 114.261 31.5664 114.261 31.957ZM126.668 34.1689V28.0752H128.031V36H126.734L126.668 34.1689ZM126.925 32.499L127.489 32.4844C127.489 33.0117 127.433 33.5 127.32 33.9492C127.213 34.3936 127.037 34.7793 126.793 35.1064C126.549 35.4336 126.229 35.6899 125.833 35.8755C125.438 36.0562 124.957 36.1465 124.391 36.1465C124.005 36.1465 123.651 36.0903 123.329 35.978C123.011 35.8657 122.738 35.6924 122.508 35.458C122.279 35.2236 122.101 34.9185 121.974 34.5425C121.852 34.1665 121.791 33.7148 121.791 33.1875V28.0752H123.146V33.2021C123.146 33.5586 123.185 33.854 123.263 34.0884C123.346 34.3179 123.456 34.501 123.592 34.6377C123.734 34.7695 123.89 34.8623 124.061 34.916C124.237 34.9697 124.417 34.9966 124.603 34.9966C125.179 34.9966 125.636 34.8867 125.973 34.667C126.31 34.4424 126.551 34.1421 126.698 33.7661C126.849 33.3853 126.925 32.9629 126.925 32.499ZM131.451 29.3203V36H130.096V28.0752H131.415L131.451 29.3203ZM133.927 28.0312L133.919 29.291C133.807 29.2666 133.7 29.252 133.597 29.2471C133.5 29.2373 133.387 29.2324 133.26 29.2324C132.948 29.2324 132.672 29.2812 132.433 29.3789C132.193 29.4766 131.991 29.6133 131.825 29.7891C131.659 29.9648 131.527 30.1748 131.429 30.4189C131.336 30.6582 131.275 30.9219 131.246 31.21L130.865 31.4297C130.865 30.9512 130.912 30.502 131.004 30.082C131.102 29.6621 131.251 29.291 131.451 28.9688C131.651 28.6416 131.905 28.3877 132.213 28.207C132.525 28.0215 132.896 27.9287 133.326 27.9287C133.424 27.9287 133.536 27.9409 133.663 27.9653C133.79 27.9849 133.878 28.0068 133.927 28.0312ZM136.651 28.0752V36H135.289V28.0752H136.651ZM135.187 25.9731C135.187 25.7534 135.252 25.5679 135.384 25.4165C135.521 25.2651 135.721 25.1895 135.985 25.1895C136.244 25.1895 136.441 25.2651 136.578 25.4165C136.72 25.5679 136.791 25.7534 136.791 25.9731C136.791 26.1831 136.72 26.3638 136.578 26.5151C136.441 26.6616 136.244 26.7349 135.985 26.7349C135.721 26.7349 135.521 26.6616 135.384 26.5151C135.252 26.3638 135.187 26.1831 135.187 25.9731ZM142.145 28.0752V29.1152H137.86V28.0752H142.145ZM139.31 26.1489H140.665V34.0371C140.665 34.3057 140.707 34.5083 140.79 34.645C140.873 34.7817 140.98 34.8721 141.112 34.916C141.244 34.96 141.385 34.9819 141.537 34.9819C141.649 34.9819 141.766 34.9722 141.888 34.9526C142.015 34.9282 142.11 34.9087 142.174 34.894L142.181 36C142.074 36.0342 141.932 36.0659 141.756 36.0952C141.585 36.1294 141.378 36.1465 141.134 36.1465C140.802 36.1465 140.497 36.0806 140.218 35.9487C139.94 35.8169 139.718 35.5972 139.552 35.2896C139.391 34.9771 139.31 34.5571 139.31 34.0298V26.1489ZM147.022 36.1465C146.471 36.1465 145.97 36.0537 145.521 35.8682C145.077 35.6777 144.693 35.4116 144.371 35.0698C144.054 34.728 143.81 34.3228 143.639 33.854C143.468 33.3853 143.382 32.8726 143.382 32.3159V32.0083C143.382 31.3638 143.478 30.79 143.668 30.2871C143.858 29.7793 144.117 29.3496 144.444 28.998C144.771 28.6465 145.143 28.3804 145.558 28.1997C145.973 28.019 146.402 27.9287 146.847 27.9287C147.413 27.9287 147.901 28.0264 148.312 28.2217C148.727 28.417 149.066 28.6904 149.33 29.042C149.593 29.3887 149.789 29.7988 149.916 30.2725C150.042 30.7412 150.106 31.2539 150.106 31.8105V32.4185H144.188V31.3125H148.751V31.21C148.731 30.8584 148.658 30.5166 148.531 30.1846C148.409 29.8525 148.214 29.5791 147.945 29.3643C147.677 29.1494 147.311 29.042 146.847 29.042C146.539 29.042 146.256 29.1079 145.997 29.2397C145.738 29.3667 145.516 29.5571 145.331 29.811C145.145 30.0649 145.001 30.375 144.898 30.7412C144.796 31.1074 144.745 31.5298 144.745 32.0083V32.3159C144.745 32.6919 144.796 33.0459 144.898 33.3779C145.006 33.7051 145.16 33.9932 145.36 34.2422C145.565 34.4912 145.812 34.6865 146.1 34.8281C146.393 34.9697 146.725 35.0405 147.096 35.0405C147.574 35.0405 147.979 34.9429 148.312 34.7476C148.644 34.5522 148.934 34.291 149.183 33.9639L150.003 34.6157C149.833 34.8745 149.615 35.1211 149.352 35.3555C149.088 35.5898 148.763 35.7803 148.377 35.9268C147.997 36.0732 147.545 36.1465 147.022 36.1465Z" fill="black" fill-opacity="0.9"/>
<path d="M192.831 25.3359H194.472L197.555 33.561L200.631 25.3359H202.272L198.2 36H196.896L192.831 25.3359ZM192.084 25.3359H193.644L193.915 32.4551V36H192.084V25.3359ZM201.459 25.3359H203.026V36H201.188V32.4551L201.459 25.3359ZM207.333 35.1357L209.486 28.0752H211.376L208.197 37.2085C208.124 37.4038 208.029 37.6162 207.912 37.8457C207.794 38.0752 207.641 38.2925 207.45 38.4976C207.265 38.7075 207.033 38.876 206.754 39.0029C206.476 39.1348 206.139 39.2007 205.744 39.2007C205.587 39.2007 205.436 39.186 205.29 39.1567C205.148 39.1323 205.014 39.1055 204.887 39.0762L204.879 37.7285C204.928 37.7334 204.987 37.7383 205.055 37.7432C205.128 37.748 205.187 37.7505 205.231 37.7505C205.524 37.7505 205.768 37.7139 205.963 37.6406C206.159 37.5723 206.317 37.46 206.439 37.3037C206.566 37.1475 206.674 36.9375 206.762 36.6738L207.333 35.1357ZM206.117 28.0752L208 34.0078L208.314 35.8682L207.091 36.1831L204.213 28.0752H206.117ZM222.597 32.5283H224.428C224.369 33.2266 224.174 33.8491 223.842 34.396C223.51 34.938 223.043 35.3652 222.443 35.6777C221.842 35.9902 221.112 36.1465 220.253 36.1465C219.594 36.1465 219 36.0293 218.473 35.7949C217.946 35.5557 217.494 35.2188 217.118 34.7842C216.742 34.3447 216.454 33.8149 216.254 33.1948C216.059 32.5747 215.961 31.8813 215.961 31.1147V30.2285C215.961 29.4619 216.061 28.7686 216.261 28.1484C216.466 27.5283 216.759 26.9985 217.14 26.5591C217.521 26.1147 217.978 25.7754 218.51 25.541C219.047 25.3066 219.65 25.1895 220.319 25.1895C221.168 25.1895 221.886 25.3457 222.472 25.6582C223.058 25.9707 223.512 26.4028 223.834 26.9546C224.162 27.5063 224.362 28.1387 224.435 28.8516H222.604C222.555 28.3926 222.448 27.9995 222.282 27.6724C222.121 27.3452 221.881 27.0962 221.564 26.9253C221.247 26.7495 220.832 26.6616 220.319 26.6616C219.899 26.6616 219.533 26.7397 219.22 26.896C218.908 27.0522 218.646 27.2817 218.437 27.5845C218.227 27.8872 218.068 28.2607 217.96 28.7051C217.858 29.1445 217.807 29.6475 217.807 30.2139V31.1147C217.807 31.6519 217.853 32.1401 217.946 32.5796C218.043 33.0142 218.19 33.3877 218.385 33.7002C218.585 34.0127 218.839 34.2544 219.147 34.4253C219.455 34.5962 219.823 34.6816 220.253 34.6816C220.775 34.6816 221.198 34.5986 221.52 34.4326C221.847 34.2666 222.094 34.0249 222.26 33.7075C222.431 33.3853 222.543 32.9922 222.597 32.5283ZM230.39 34.4106V30.6313C230.39 30.3481 230.338 30.104 230.236 29.8989C230.133 29.6938 229.977 29.5352 229.767 29.4229C229.562 29.3105 229.303 29.2544 228.991 29.2544C228.703 29.2544 228.454 29.3032 228.244 29.4009C228.034 29.4985 227.87 29.6304 227.753 29.7964C227.636 29.9624 227.577 30.1504 227.577 30.3604H225.819C225.819 30.0479 225.895 29.7451 226.046 29.4521C226.198 29.1592 226.417 28.8979 226.706 28.6685C226.994 28.439 227.338 28.2583 227.738 28.1265C228.139 27.9946 228.588 27.9287 229.086 27.9287C229.682 27.9287 230.209 28.0288 230.668 28.229C231.132 28.4292 231.496 28.7319 231.759 29.1372C232.028 29.5376 232.162 30.0405 232.162 30.646V34.1689C232.162 34.5303 232.187 34.855 232.235 35.1431C232.289 35.4263 232.365 35.6729 232.462 35.8828V36H230.653C230.57 35.8096 230.504 35.5679 230.456 35.2749C230.412 34.9771 230.39 34.689 230.39 34.4106ZM230.646 31.1807L230.661 32.272H229.394C229.066 32.272 228.778 32.3037 228.529 32.3672C228.28 32.4258 228.073 32.5137 227.907 32.6309C227.741 32.748 227.616 32.8896 227.533 33.0557C227.45 33.2217 227.409 33.4097 227.409 33.6196C227.409 33.8296 227.458 34.0225 227.555 34.1982C227.653 34.3691 227.794 34.5034 227.98 34.6011C228.17 34.6987 228.4 34.7476 228.668 34.7476C229.03 34.7476 229.345 34.6743 229.613 34.5278C229.887 34.3765 230.102 34.1934 230.258 33.9785C230.414 33.7588 230.497 33.5513 230.507 33.356L231.078 34.1396C231.02 34.3398 230.919 34.5547 230.778 34.7842C230.636 35.0137 230.451 35.2334 230.221 35.4434C229.997 35.6484 229.726 35.8169 229.408 35.9487C229.096 36.0806 228.734 36.1465 228.324 36.1465C227.807 36.1465 227.345 36.0439 226.94 35.8389C226.535 35.6289 226.217 35.3481 225.988 34.9966C225.758 34.6401 225.644 34.2373 225.644 33.7881C225.644 33.3682 225.722 32.9971 225.878 32.6748C226.039 32.3477 226.273 32.0742 226.581 31.8545C226.894 31.6348 227.274 31.4688 227.724 31.3564C228.173 31.2393 228.686 31.1807 229.262 31.1807H230.646ZM235.78 29.584V36H234.015V28.0752H235.7L235.78 29.584ZM238.205 28.0239L238.19 29.6646C238.083 29.645 237.965 29.6304 237.838 29.6206C237.716 29.6108 237.594 29.606 237.472 29.606C237.169 29.606 236.903 29.6499 236.674 29.7378C236.444 29.8208 236.251 29.9429 236.095 30.104C235.944 30.2603 235.827 30.4507 235.744 30.6753C235.661 30.8999 235.612 31.1514 235.597 31.4297L235.194 31.459C235.194 30.9609 235.243 30.4995 235.341 30.0747C235.438 29.6499 235.585 29.2764 235.78 28.9541C235.98 28.6318 236.229 28.3804 236.527 28.1997C236.83 28.019 237.179 27.9287 237.575 27.9287C237.682 27.9287 237.797 27.9385 237.919 27.958C238.046 27.9775 238.141 27.9995 238.205 28.0239ZM243.31 28.0752V29.3643H238.842V28.0752H243.31ZM240.131 26.1343H241.896V33.8101C241.896 34.0542 241.93 34.2422 241.999 34.374C242.072 34.501 242.172 34.5864 242.299 34.6304C242.426 34.6743 242.575 34.6963 242.746 34.6963C242.868 34.6963 242.985 34.689 243.097 34.6743C243.209 34.6597 243.3 34.645 243.368 34.6304L243.375 35.978C243.229 36.022 243.058 36.061 242.863 36.0952C242.672 36.1294 242.453 36.1465 242.204 36.1465C241.798 36.1465 241.439 36.0757 241.127 35.9341C240.814 35.7876 240.57 35.5508 240.395 35.2236C240.219 34.8965 240.131 34.4619 240.131 33.9199V26.1343Z" fill="black" fill-opacity="0.9"/>
<path d="M298.171 31.8179H295.322V30.668H298.171C298.723 30.668 299.169 30.5801 299.511 30.4043C299.853 30.2285 300.102 29.9844 300.258 29.6719C300.419 29.3594 300.5 29.0029 300.5 28.6025C300.5 28.2363 300.419 27.8921 300.258 27.5698C300.102 27.2476 299.853 26.9888 299.511 26.7935C299.169 26.5933 298.723 26.4932 298.171 26.4932H295.651V36H294.238V25.3359H298.171C298.977 25.3359 299.658 25.4751 300.214 25.7534C300.771 26.0317 301.193 26.4175 301.481 26.9106C301.77 27.3989 301.914 27.958 301.914 28.5879C301.914 29.2715 301.77 29.855 301.481 30.3384C301.193 30.8218 300.771 31.1904 300.214 31.4443C299.658 31.6934 298.977 31.8179 298.171 31.8179ZM304.851 29.3203V36H303.496V28.0752H304.814L304.851 29.3203ZM307.326 28.0312L307.319 29.291C307.207 29.2666 307.099 29.252 306.997 29.2471C306.899 29.2373 306.787 29.2324 306.66 29.2324C306.347 29.2324 306.071 29.2812 305.832 29.3789C305.593 29.4766 305.39 29.6133 305.224 29.7891C305.058 29.9648 304.926 30.1748 304.829 30.4189C304.736 30.6582 304.675 30.9219 304.646 31.21L304.265 31.4297C304.265 30.9512 304.311 30.502 304.404 30.082C304.501 29.6621 304.65 29.291 304.851 28.9688C305.051 28.6416 305.305 28.3877 305.612 28.207C305.925 28.0215 306.296 27.9287 306.726 27.9287C306.823 27.9287 306.936 27.9409 307.062 27.9653C307.189 27.9849 307.277 28.0068 307.326 28.0312ZM308.073 32.1255V31.957C308.073 31.3857 308.156 30.856 308.322 30.3677C308.488 29.8745 308.728 29.4473 309.04 29.0859C309.353 28.7197 309.731 28.4365 310.175 28.2363C310.62 28.0312 311.118 27.9287 311.669 27.9287C312.226 27.9287 312.727 28.0312 313.171 28.2363C313.62 28.4365 314.001 28.7197 314.313 29.0859C314.631 29.4473 314.873 29.8745 315.039 30.3677C315.205 30.856 315.288 31.3857 315.288 31.957V32.1255C315.288 32.6968 315.205 33.2266 315.039 33.7148C314.873 34.2031 314.631 34.6304 314.313 34.9966C314.001 35.3579 313.623 35.6411 313.178 35.8462C312.739 36.0464 312.241 36.1465 311.684 36.1465C311.127 36.1465 310.627 36.0464 310.183 35.8462C309.738 35.6411 309.357 35.3579 309.04 34.9966C308.728 34.6304 308.488 34.2031 308.322 33.7148C308.156 33.2266 308.073 32.6968 308.073 32.1255ZM309.428 31.957V32.1255C309.428 32.521 309.475 32.8945 309.567 33.2461C309.66 33.5928 309.799 33.9004 309.985 34.1689C310.175 34.4375 310.412 34.6499 310.695 34.8062C310.979 34.9575 311.308 35.0332 311.684 35.0332C312.055 35.0332 312.38 34.9575 312.658 34.8062C312.941 34.6499 313.176 34.4375 313.361 34.1689C313.547 33.9004 313.686 33.5928 313.779 33.2461C313.876 32.8945 313.925 32.521 313.925 32.1255V31.957C313.925 31.5664 313.876 31.1978 313.779 30.8511C313.686 30.4995 313.544 30.1895 313.354 29.9209C313.168 29.6475 312.934 29.4326 312.651 29.2764C312.373 29.1201 312.045 29.042 311.669 29.042C311.298 29.042 310.971 29.1201 310.688 29.2764C310.41 29.4326 310.175 29.6475 309.985 29.9209C309.799 30.1895 309.66 30.4995 309.567 30.8511C309.475 31.1978 309.428 31.5664 309.428 31.957ZM318.796 36H317.441V27.3867C317.441 26.7861 317.558 26.2783 317.792 25.8633C318.027 25.4482 318.361 25.1333 318.796 24.9185C319.23 24.7036 319.746 24.5962 320.341 24.5962C320.693 24.5962 321.037 24.6401 321.374 24.728C321.711 24.811 322.058 24.916 322.414 25.043L322.187 26.1855C321.962 26.0977 321.701 26.0146 321.403 25.9365C321.11 25.8535 320.788 25.812 320.437 25.812C319.855 25.812 319.436 25.9438 319.177 26.2075C318.923 26.4663 318.796 26.8594 318.796 27.3867V36ZM320.415 28.0752V29.1152H316.188V28.0752H320.415ZM323.081 28.0752V36H321.726V28.0752H323.081ZM326.779 24.75V36H325.417V24.75H326.779ZM332.243 36.1465C331.691 36.1465 331.191 36.0537 330.742 35.8682C330.297 35.6777 329.914 35.4116 329.592 35.0698C329.274 34.728 329.03 34.3228 328.859 33.854C328.688 33.3853 328.603 32.8726 328.603 32.3159V32.0083C328.603 31.3638 328.698 30.79 328.889 30.2871C329.079 29.7793 329.338 29.3496 329.665 28.998C329.992 28.6465 330.363 28.3804 330.778 28.1997C331.193 28.019 331.623 27.9287 332.067 27.9287C332.634 27.9287 333.122 28.0264 333.532 28.2217C333.947 28.417 334.287 28.6904 334.55 29.042C334.814 29.3887 335.009 29.7988 335.136 30.2725C335.263 30.7412 335.327 31.2539 335.327 31.8105V32.4185H329.409V31.3125H333.972V31.21C333.952 30.8584 333.879 30.5166 333.752 30.1846C333.63 29.8525 333.435 29.5791 333.166 29.3643C332.897 29.1494 332.531 29.042 332.067 29.042C331.76 29.042 331.477 29.1079 331.218 29.2397C330.959 29.3667 330.737 29.5571 330.551 29.811C330.366 30.0649 330.222 30.375 330.119 30.7412C330.017 31.1074 329.965 31.5298 329.965 32.0083V32.3159C329.965 32.6919 330.017 33.0459 330.119 33.3779C330.227 33.7051 330.38 33.9932 330.581 34.2422C330.786 34.4912 331.032 34.6865 331.32 34.8281C331.613 34.9697 331.945 35.0405 332.316 35.0405C332.795 35.0405 333.2 34.9429 333.532 34.7476C333.864 34.5522 334.155 34.291 334.404 33.9639L335.224 34.6157C335.053 34.8745 334.836 35.1211 334.572 35.3555C334.309 35.5898 333.984 35.7803 333.598 35.9268C333.217 36.0732 332.766 36.1465 332.243 36.1465Z" fill="black" fill-opacity="0.9"/>
</g>
<defs>
<filter id="filter0_d_31_430" x="0.237793" y="0" width="338.089" height="45.2007" filterUnits="userSpaceOnUse" color-interpolation-filters="sRGB">
<feFlood flood-opacity="0" result="BackgroundImageFix"/>
<feColorMatrix in="SourceAlpha" type="matrix" values="0 0 0 0 0 0 0 0 0 0 0 0 0 0 0 0 0 0 127 0" result="hardAlpha"/>
<feOffset dy="3"/>
<feGaussianBlur stdDeviation="1.5"/>
<feComposite in2="hardAlpha" operator="out"/>
<feColorMatrix type="matrix" values="0 0 0 0 0 0 0 0 0 0 0 0 0 0 0 0 0 0 0.25 0"/>
<feBlend mode="normal" in2="BackgroundImageFix" result="effect1_dropShadow_31_430"/>
<feBlend mode="normal" in="SourceGraphic" in2="effect1_dropShadow_31_430" result="shape"/>
</filter>
</defs>
</svg>
