<svg width="343" height="55" viewBox="0 0 343 55" fill="none" xmlns="http://www.w3.org/2000/svg">
<g filter="url(#filter0_d_35_654)">
<rect x="4" width="335" height="47" rx="23.5" fill="#C8BA2D"/>
<path d="M132.779 23.7598H129.127L129.107 21.748H132.174C132.714 21.748 133.157 21.6797 133.502 21.543C133.847 21.3997 134.104 21.1947 134.273 20.9277C134.449 20.6543 134.537 20.3223 134.537 19.9316C134.537 19.4889 134.452 19.1309 134.283 18.8574C134.12 18.584 133.863 18.3854 133.512 18.2617C133.167 18.138 132.721 18.0762 132.174 18.0762H130.143V30H127.213V15.7812H132.174C133.001 15.7812 133.74 15.8594 134.391 16.0156C135.048 16.1719 135.605 16.4095 136.061 16.7285C136.516 17.0475 136.865 17.4512 137.105 17.9395C137.346 18.4212 137.467 18.9941 137.467 19.6582C137.467 20.2441 137.333 20.7845 137.066 21.2793C136.806 21.7741 136.393 22.1777 135.826 22.4902C135.266 22.8027 134.534 22.9753 133.629 23.0078L132.779 23.7598ZM132.652 30H128.326L129.469 27.7148H132.652C133.167 27.7148 133.587 27.6335 133.912 27.4707C134.238 27.3014 134.479 27.0736 134.635 26.7871C134.791 26.5007 134.869 26.1719 134.869 25.8008C134.869 25.3841 134.798 25.0228 134.654 24.7168C134.518 24.4108 134.296 24.1764 133.99 24.0137C133.684 23.8444 133.281 23.7598 132.779 23.7598H129.957L129.977 21.748H133.492L134.166 22.5391C135.032 22.526 135.729 22.679 136.256 22.998C136.79 23.3105 137.177 23.7174 137.418 24.2188C137.665 24.7201 137.789 25.2572 137.789 25.8301C137.789 26.7415 137.59 27.5098 137.193 28.1348C136.796 28.7533 136.214 29.2188 135.445 29.5312C134.684 29.8438 133.753 30 132.652 30ZM139.361 24.8242V24.6191C139.361 23.8444 139.472 23.1315 139.693 22.4805C139.915 21.8229 140.237 21.2533 140.66 20.7715C141.083 20.2897 141.604 19.9154 142.223 19.6484C142.841 19.375 143.551 19.2383 144.352 19.2383C145.152 19.2383 145.865 19.375 146.49 19.6484C147.115 19.9154 147.639 20.2897 148.062 20.7715C148.492 21.2533 148.818 21.8229 149.039 22.4805C149.26 23.1315 149.371 23.8444 149.371 24.6191V24.8242C149.371 25.5924 149.26 26.3053 149.039 26.9629C148.818 27.6139 148.492 28.1836 148.062 28.6719C147.639 29.1536 147.118 29.528 146.5 29.7949C145.882 30.0618 145.172 30.1953 144.371 30.1953C143.57 30.1953 142.857 30.0618 142.232 29.7949C141.614 29.528 141.09 29.1536 140.66 28.6719C140.237 28.1836 139.915 27.6139 139.693 26.9629C139.472 26.3053 139.361 25.5924 139.361 24.8242ZM142.174 24.6191V24.8242C142.174 25.2669 142.213 25.6803 142.291 26.0645C142.369 26.4486 142.493 26.7871 142.662 27.0801C142.838 27.3665 143.066 27.5911 143.346 27.7539C143.626 27.9167 143.967 27.998 144.371 27.998C144.762 27.998 145.097 27.9167 145.377 27.7539C145.657 27.5911 145.882 27.3665 146.051 27.0801C146.22 26.7871 146.344 26.4486 146.422 26.0645C146.507 25.6803 146.549 25.2669 146.549 24.8242V24.6191C146.549 24.1895 146.507 23.7858 146.422 23.4082C146.344 23.0241 146.217 22.6855 146.041 22.3926C145.872 22.0931 145.647 21.8587 145.367 21.6895C145.087 21.5202 144.749 21.4355 144.352 21.4355C143.954 21.4355 143.616 21.5202 143.336 21.6895C143.062 21.8587 142.838 22.0931 142.662 22.3926C142.493 22.6855 142.369 23.0241 142.291 23.4082C142.213 23.7858 142.174 24.1895 142.174 24.6191ZM150.65 24.8242V24.6191C150.65 23.8444 150.761 23.1315 150.982 22.4805C151.204 21.8229 151.526 21.2533 151.949 20.7715C152.372 20.2897 152.893 19.9154 153.512 19.6484C154.13 19.375 154.84 19.2383 155.641 19.2383C156.441 19.2383 157.154 19.375 157.779 19.6484C158.404 19.9154 158.928 20.2897 159.352 20.7715C159.781 21.2533 160.107 21.8229 160.328 22.4805C160.549 23.1315 160.66 23.8444 160.66 24.6191V24.8242C160.66 25.5924 160.549 26.3053 160.328 26.9629C160.107 27.6139 159.781 28.1836 159.352 28.6719C158.928 29.1536 158.408 29.528 157.789 29.7949C157.171 30.0618 156.461 30.1953 155.66 30.1953C154.859 30.1953 154.146 30.0618 153.521 29.7949C152.903 29.528 152.379 29.1536 151.949 28.6719C151.526 28.1836 151.204 27.6139 150.982 26.9629C150.761 26.3053 150.65 25.5924 150.65 24.8242ZM153.463 24.6191V24.8242C153.463 25.2669 153.502 25.6803 153.58 26.0645C153.658 26.4486 153.782 26.7871 153.951 27.0801C154.127 27.3665 154.355 27.5911 154.635 27.7539C154.915 27.9167 155.257 27.998 155.66 27.998C156.051 27.998 156.386 27.9167 156.666 27.7539C156.946 27.5911 157.171 27.3665 157.34 27.0801C157.509 26.7871 157.633 26.4486 157.711 26.0645C157.796 25.6803 157.838 25.2669 157.838 24.8242V24.6191C157.838 24.1895 157.796 23.7858 157.711 23.4082C157.633 23.0241 157.506 22.6855 157.33 22.3926C157.161 22.0931 156.936 21.8587 156.656 21.6895C156.376 21.5202 156.038 21.4355 155.641 21.4355C155.243 21.4355 154.905 21.5202 154.625 21.6895C154.352 21.8587 154.127 22.0931 153.951 22.3926C153.782 22.6855 153.658 23.0241 153.58 23.4082C153.502 23.7858 153.463 24.1895 153.463 24.6191ZM165.201 14.9902V30H162.389V14.9902H165.201ZM171.861 19.4336L167.271 24.668L164.811 27.1582L163.785 25.127L165.738 22.6465L168.482 19.4336H171.861ZM168.941 30L165.816 25.1172L167.76 23.418L172.184 30H168.941ZM189.801 15.7812V30H186.871L181.158 20.4688V30H178.229V15.7812H181.158L186.881 25.3223V15.7812H189.801ZM191.725 24.8242V24.6191C191.725 23.8444 191.835 23.1315 192.057 22.4805C192.278 21.8229 192.6 21.2533 193.023 20.7715C193.447 20.2897 193.967 19.9154 194.586 19.6484C195.204 19.375 195.914 19.2383 196.715 19.2383C197.516 19.2383 198.229 19.375 198.854 19.6484C199.479 19.9154 200.003 20.2897 200.426 20.7715C200.855 21.2533 201.181 21.8229 201.402 22.4805C201.624 23.1315 201.734 23.8444 201.734 24.6191V24.8242C201.734 25.5924 201.624 26.3053 201.402 26.9629C201.181 27.6139 200.855 28.1836 200.426 28.6719C200.003 29.1536 199.482 29.528 198.863 29.7949C198.245 30.0618 197.535 30.1953 196.734 30.1953C195.934 30.1953 195.221 30.0618 194.596 29.7949C193.977 29.528 193.453 29.1536 193.023 28.6719C192.6 28.1836 192.278 27.6139 192.057 26.9629C191.835 26.3053 191.725 25.5924 191.725 24.8242ZM194.537 24.6191V24.8242C194.537 25.2669 194.576 25.6803 194.654 26.0645C194.732 26.4486 194.856 26.7871 195.025 27.0801C195.201 27.3665 195.429 27.5911 195.709 27.7539C195.989 27.9167 196.331 27.998 196.734 27.998C197.125 27.998 197.46 27.9167 197.74 27.7539C198.02 27.5911 198.245 27.3665 198.414 27.0801C198.583 26.7871 198.707 26.4486 198.785 26.0645C198.87 25.6803 198.912 25.2669 198.912 24.8242V24.6191C198.912 24.1895 198.87 23.7858 198.785 23.4082C198.707 23.0241 198.58 22.6855 198.404 22.3926C198.235 22.0931 198.01 21.8587 197.73 21.6895C197.451 21.5202 197.112 21.4355 196.715 21.4355C196.318 21.4355 195.979 21.5202 195.699 21.6895C195.426 21.8587 195.201 22.0931 195.025 22.3926C194.856 22.6855 194.732 23.0241 194.654 23.4082C194.576 23.7858 194.537 24.1895 194.537 24.6191ZM206.48 27.2656L208.678 19.4336H210.465L209.889 22.5098L207.691 30H206.197L206.48 27.2656ZM205.367 19.4336L206.939 27.2559L207.086 30H205.328L202.652 19.4336H205.367ZM212.477 27.1289L214.01 19.4336H216.734L214.059 30H212.311L212.477 27.1289ZM210.709 19.4336L212.896 27.207L213.199 30H211.695L209.498 22.5195L208.941 19.4336H210.709Z" fill="#262312"/>
<path d="M260.67 24.5091L254.293 32.5815C253.852 33.1395 253.139 33.1395 252.703 32.5815L251.643 31.2401C251.202 30.6821 251.202 29.7799 251.643 29.2279L256.164 23.5059L251.643 17.784C251.202 17.226 251.202 16.3238 251.643 15.7718L252.698 14.4185C253.139 13.8605 253.852 13.8605 254.288 14.4185L260.665 22.4909C261.111 23.0489 261.111 23.9511 260.67 24.5091Z" fill="black" fill-opacity="0.85"/>
<path d="M239.357 24.5091L232.98 32.5815C232.539 33.1395 231.826 33.1395 231.39 32.5815L230.331 31.2401C229.89 30.6821 229.89 29.7799 230.331 29.2279L234.851 23.5059L230.331 17.784C229.89 17.226 229.89 16.3238 230.331 15.7718L231.386 14.4185C231.826 13.8605 232.539 13.8605 232.975 14.4185L239.353 22.4909C239.798 23.0489 239.798 23.9511 239.357 24.5091Z" fill="#52514F"/>
<path d="M250.014 24.5091L243.636 32.5815C243.196 33.1395 242.483 33.1395 242.047 32.5815L240.987 31.2401C240.546 30.6821 240.546 29.7799 240.987 29.2279L245.507 23.5059L240.987 17.784C240.546 17.226 240.546 16.3238 240.987 15.7718L242.042 14.4185C242.483 13.8605 243.196 13.8605 243.632 14.4185L250.009 22.4909C250.455 23.0489 250.455 23.9511 250.014 24.5091Z" fill="#6D6D68"/>
</g>
<defs>
<filter id="filter0_d_35_654" x="0" y="0" width="343" height="55" filterUnits="userSpaceOnUse" color-interpolation-filters="sRGB">
<feFlood flood-opacity="0" result="BackgroundImageFix"/>
<feColorMatrix in="SourceAlpha" type="matrix" values="0 0 0 0 0 0 0 0 0 0 0 0 0 0 0 0 0 0 127 0" result="hardAlpha"/>
<feOffset dy="4"/>
<feGaussianBlur stdDeviation="2"/>
<feComposite in2="hardAlpha" operator="out"/>
<feColorMatrix type="matrix" values="0 0 0 0 0 0 0 0 0 0 0 0 0 0 0 0 0 0 0.25 0"/>
<feBlend mode="normal" in2="BackgroundImageFix" result="effect1_dropShadow_35_654"/>
<feBlend mode="normal" in="SourceGraphic" in2="effect1_dropShadow_35_654" result="shape"/>
</filter>
</defs>
</svg>
