<svg width="32" height="34" viewBox="0 0 32 34" fill="none" xmlns="http://www.w3.org/2000/svg">
<g filter="url(#filter0_d_33_438)">
<path d="M21.6606 3.72335C18.2041 -0.54058 11.7269 -1.00943 7.19985 2.67662C2.67285 6.36266 1.80436 12.8126 5.2609 17.0766C8.23917 20.7505 13.4624 21.6082 17.7429 19.4139L24.3343 27.5449C24.6212 27.8989 25.1635 27.9381 25.5393 27.6321L27.8171 25.7775C28.1929 25.4715 28.2656 24.9315 27.9786 24.5775L21.3873 16.4465C24.4069 12.6968 24.6389 7.3973 21.6606 3.72335ZM16.939 14.6907C14.4278 16.7354 10.8227 16.4745 8.90528 14.1092C6.98788 11.7439 7.47127 8.15392 9.98247 6.10921C12.4937 4.0645 16.0988 4.32546 18.0162 6.69073C19.9336 9.056 19.4502 12.646 16.939 14.6907Z" fill="black" fill-opacity="0.6" shape-rendering="crispEdges"/>
</g>
<defs>
<filter id="filter0_d_33_438" x="0.14444" y="0.191696" width="31.0097" height="33.6465" filterUnits="userSpaceOnUse" color-interpolation-filters="sRGB">
<feFlood flood-opacity="0" result="BackgroundImageFix"/>
<feColorMatrix in="SourceAlpha" type="matrix" values="0 0 0 0 0 0 0 0 0 0 0 0 0 0 0 0 0 0 127 0" result="hardAlpha"/>
<feOffset dy="3"/>
<feGaussianBlur stdDeviation="1.5"/>
<feComposite in2="hardAlpha" operator="out"/>
<feColorMatrix type="matrix" values="0 0 0 0 0 0 0 0 0 0 0 0 0 0 0 0 0 0 0.25 0"/>
<feBlend mode="normal" in2="BackgroundImageFix" result="effect1_dropShadow_33_438"/>
<feBlend mode="normal" in="SourceGraphic" in2="effect1_dropShadow_33_438" result="shape"/>
</filter>
</defs>
</svg>
